<svg width="580" height="400" xmlns="http://www.w3.org/2000/svg">
 <!-- Created with Method Draw - http://github.com/duopixel/Method-Draw/ -->
 <g>
  <title>background</title>
  <rect fill="#fff" id="canvas_background" height="402" width="582" y="-1" x="-1"/>
  <g display="none" overflow="visible" y="0" x="0" height="100%" width="100%" id="canvasGrid">
   <rect fill="url(#gridpattern)" stroke-width="0" y="0" x="0" height="100%" width="100%"/>
  </g>
 </g>
 <g>
  <title>Layer 1</title>
  <text stroke="#000" transform="matrix(16.165024320269627,0,0,9.997195055849765,-2426.5691228022065,-1283.815414713307) " xml:space="preserve" text-anchor="start" font-family="'Palatino Linotype', 'Book Antiqua', Palatino, serif" font-size="24" id="svg_1" y="156.93764" x="150.622877" stroke-width="0" fill="#324084">JPS</text>
  <path stroke="#000" id="svg_2" d="m293.888796,93.045683c-1.340633,0.10097 -2.711283,0.170773 -4.120977,0.170773l0,0c-1.260946,0 -2.485825,-0.055249 -3.680683,-0.137162l0,0l-10.345936,10.641947l-2.544372,-0.577263c-2.986279,-0.671114 -5.88693,-1.513077 -8.676287,-2.523373l0,0l-2.418134,-0.875597l0.622184,-13.367347c-2.198769,-1.231681 -4.250179,-2.602807 -6.149958,-4.106165l0,0l-16.357563,2.812063l-1.493886,-1.756166c-1.752391,-2.061446 -3.246268,-4.221651 -4.570271,-6.40572l0,0l-1.149748,-1.907653l11.106465,-9.838453c-0.694384,-2.083207 -1.154239,-4.233757 -1.391699,-6.425044l0,0l-14.71793,-6.227787l0.2675,-2.109718c0.315659,-2.523415 0.925784,-4.93847 1.654698,-7.259762l0,0l0.650797,-2.059201l16.416182,-1.818529c1.170726,-1.977326 2.548958,-3.851192 4.101411,-5.612067l0,0l-6.264076,-12.342581l1.890674,-1.481796c2.222725,-1.731973 4.601876,-3.302724 7.084608,-4.738853l0,0l2.150677,-1.241152l14.170867,7.122604c2.38817,-0.880363 4.885953,-1.604431 7.473937,-2.160151l0,0l5.136942,-12.756339l2.648116,-0.161122c1.426281,-0.084166 2.959255,-0.182833 4.625931,-0.182833l0,0c1.6622,0 3.190602,0.098667 4.616946,0.182833l0,0l2.648044,0.161122l5.192521,12.888739c2.488812,0.555575 4.900999,1.265242 7.212479,2.126468l0,0l14.369263,-7.223841l2.158159,1.241285c2.482799,1.433723 4.866331,3.009267 7.084708,4.734049l0,0l1.898104,1.481796l-6.456454,12.708285c1.406745,1.635693 2.675144,3.367704 3.758777,5.188662l0,0l16.928705,1.876253l0.658246,2.059067c0.739437,2.318986 1.346641,4.734037 1.654651,7.262267l0,0l0.267581,2.109584l-15.231971,6.444249c-0.228398,1.999082 -0.63419,3.966796 -1.239882,5.883912l0,0l11.476167,10.146494l-1.154191,1.914679c-1.319541,2.191463 -2.805959,4.358797 -4.565852,6.413079l0,0l-1.493872,1.751144l-16.763336,-2.874442c-1.776447,1.421583 -3.700124,2.730212 -5.756162,3.911322l0,0l0.638714,13.629546l-2.424161,0.878029c-2.792421,1.005495 -5.688509,1.849833 -8.674688,2.520974l0,0l-2.553501,0.577309l-10.36847,-10.668424l0,0l0.000005,0.000004zm13.303669,3.413478c0.894279,-0.238219 1.773454,-0.495667 2.643563,-0.769899l0,0l-0.598133,-12.871764l1.886174,-0.96949c2.82542,-1.467257 5.398371,-3.22817 7.682817,-5.22705l0,0l1.520925,-1.332593l15.861675,2.718105c0.476428,-0.637492 0.937771,-1.289355 1.382603,-1.955603l0,0l-10.849412,-9.600363l0.673297,-1.715184c0.957298,-2.470434 1.501378,-5.118947 1.662162,-7.882689l0,0l0.099196,-1.799438l14.411295,-6.095448c-0.150261,-0.73853 -0.323022,-1.47218 -0.519958,-2.20835l0,0l-16.034465,-1.775112l-0.862583,-1.659871c-1.28954,-2.482567 -2.995356,-4.806216 -5.031781,-6.949487l0,0l-1.346618,-1.428884l6.098778,-12.005795c-0.706381,-0.495648 -1.430786,-0.976662 -2.174704,-1.44332l0,0l-13.613248,6.838851l-2.004911,-0.846855c-2.969673,-1.250848 -6.181429,-2.201029 -9.568991,-2.81678l0,0l-2.191201,-0.401679l-4.915964,-12.200722c-0.477979,-0.019179 -0.942352,-0.028894 -1.394719,-0.028894l0,0c-0.461434,0 -0.925793,0.009715 -1.406759,0.028894l0,0l-4.881353,12.121376l-2.222825,0.380071c-3.446196,0.591653 -6.732992,1.556319 -9.794397,2.824001l0,0l-2.000416,0.832259l-13.392357,-6.730526c-0.739413,0.466658 -1.465355,0.947672 -2.165647,1.44332l0,0l5.936391,11.690707l-1.394619,1.431176c-2.174718,2.234705 -3.982741,4.683569 -5.338368,7.312766l0,0l-0.858126,1.667016l-15.518997,1.71748c-0.19686,0.73617 -0.371157,1.46982 -0.516942,2.20835l0,0l13.912377,5.886226l0.085629,1.813653c0.145747,2.927625 0.757465,5.737241 1.809459,8.364046l0,0l0.688405,1.727065l-10.506867,9.302133c0.441897,0.668674 0.901757,1.320529 1.382742,1.957983l0,0l15.428725,-2.658064l1.536009,1.332635c2.367054,2.073655 5.070768,3.875313 8.049556,5.371605l0,0l1.922241,0.959664l-0.587663,12.674575c0.871688,0.274232 1.75388,0.53168 2.648097,0.769899l0,0l9.765899,-10.050203l2.230274,0.218796c1.683259,0.170822 3.321408,0.281481 4.952093,0.281481l0,0c1.753865,0 3.522744,-0.122631 5.330776,-0.327121l0,0l2.249882,-0.252502l9.840981,10.129549l0,0l0.000005,0.000004zm4.451591,-26.099696l2.152108,2.645935l-13.643322,7.103555l-4.842304,-5.963362l0,0c-1.761462,0.343955 -3.61303,0.546173 -5.539718,0.546173l0,0c-13.332277,0 -24.135124,-8.647818 -24.135124,-19.306592l0,0c0,-10.668329 10.802846,-19.31376 24.135124,-19.31376l0,0c13.317231,0 24.122993,8.645431 24.122993,19.31376l0,0c0,4.38034 -1.839475,8.438428 -4.923404,11.678708l0,0l2.673646,3.295586m-9.178278,1.017425l0.425319,-0.216409l-3.889496,-4.789309l2.254325,-1.804189c2.947263,-2.364588 4.755224,-5.590344 4.755224,-9.181812l0,0c-0.016549,-7.180351 -7.281558,-12.994563 -16.243326,-13.008918l0,0c-8.982874,0.014359 -16.240363,5.821308 -16.255399,13.008918l0,0c0.015037,7.173202 7.280036,12.987272 16.255399,13.001765l0,0c2.004801,0 3.934592,-0.329592 5.802675,-0.902085l0,0l2.978739,-0.914096l3.916539,4.806135l0,0z" stroke-opacity="null" stroke-width="0" fill="#324084"/>
  <path id="svg_5" d="m33.5,79.4375c11,0 512,286 512,286c0,0 -498,3 -498,3c0,0 430,-324 430,-324" opacity="0.5" fill-opacity="null" stroke-opacity="null" stroke-width="0" stroke="#000" fill="#324084"/>
 </g>
</svg>